<?xml version="1.0" encoding="utf-8"?>
<!-- Generator: Adobe Illustrator 16.0.0, SVG Export Plug-In . SVG Version: 6.00 Build 0)  -->
<!DOCTYPE svg PUBLIC "-//W3C//DTD SVG 1.1//EN" "http://www.w3.org/Graphics/SVG/1.1/DTD/svg11.dtd">
<svg version="1.1" id="Layer_1" xmlns="http://www.w3.org/2000/svg" xmlns:xlink="http://www.w3.org/1999/xlink" x="0px" y="0px"
	 width="400px" height="200px" viewBox="0 0 400 200" enable-background="new 0 0 400 200" xml:space="preserve">
<g>
	<g id="XMLID_9_">
		<g>
			<rect x="69.498" y="102.011" fill="#993621" width="10.579" height="3.413"/>
			<polygon fill="#525252" points="377.288,89.847 364.943,131.183 355.769,131.183 365.491,100.608 375.461,91.493 375.49,91.493 
							"/>
			<polygon fill="#525252" points="385.335,23.18 397.317,63.052 389.237,70.856 374.27,21.138 			"/>
			<polygon fill="#E37A25" points="389.237,70.856 392.438,81.557 383.385,84.269 375.916,59.425 371.222,43.787 364.943,22.876 
				362.139,13.578 371.191,10.864 374.27,21.138 			"/>
			<polygon fill="#E37A25" points="163.113,80.184 172.318,110.791 176.77,125.574 182.5,144.686 173.478,147.4 168.6,131.183 
				159.089,99.632 152.2,76.708 161.253,73.997 			"/>
			<path fill="#525252" d="M140.982,86.007c5.547,0,10.151-4.024,11.065-9.328l0.153,0.03l6.889,22.924h-13.322L140.982,86.007z"/>
			<polygon fill="#848484" points="159.089,99.632 168.6,131.183 145.767,131.183 145.767,99.632 			"/>
			<path fill="#848484" d="M140.982,63.541c6.187,0,11.218,5.029,11.218,11.248c0,0.64-0.061,1.28-0.153,1.89
				c-0.914,5.304-5.518,9.328-11.065,9.328c-6.219,0-11.249-5.031-11.249-11.218C129.733,68.57,134.763,63.541,140.982,63.541z"/>
			<polygon fill="#525252" points="127.447,74.789 127.447,131.183 114.187,148.771 114.187,140.631 114.187,62.321 127.447,62.321 
							"/>
			<path fill="#848484" d="M263.923,143.498l40.997-12.315h50.849h9.175v20.028c-4.757-3.936-10.854-6.311-17.498-6.311h-51.76
				c-5.123,0-9.906,1.402-14.023,3.87h-35.237L263.923,143.498z"/>
			<path fill="#848484" d="M173.478,147.4l9.023-2.715l12.621,1.982c-1.524,0.548-2.989,1.251-4.391,2.103h-42.707h-33.837
				l13.261-17.588h18.32H168.6L173.478,147.4z"/>
			<path fill="#848484" d="M295.686,148.345c-11.675,0-21.463,8.383-23.595,19.447c-0.304,1.465-0.458,3.019-0.458,4.573h-3.411
				c0-9.997,5.394-18.809,13.44-23.595c4.117-2.468,8.9-3.87,14.023-3.87h51.76c6.645,0,12.741,2.375,17.498,6.311
				c6.097,5.061,9.967,12.652,9.967,21.154h-3.415c0-1.555-0.151-3.108-0.455-4.573c-2.135-11.064-11.92-19.447-23.595-19.447
				H295.686z"/>
			<path fill="#848484" d="M221.794,150.845c6.341,5.028,10.425,12.834,10.425,21.521h-3.414c0-1.555-0.152-3.108-0.456-4.573
				c-2.137-11.064-11.919-19.447-23.595-19.447c-11.677,0-21.431,8.383-23.565,19.447c-0.305,1.465-0.457,3.019-0.457,4.573h-3.444
				c0-9.997,5.396-18.809,13.442-23.595c1.402-0.852,2.867-1.555,4.391-2.103c2.987-1.157,6.248-1.768,9.633-1.768
				C211.185,144.9,217.1,147.127,221.794,150.845z"/>
			<path fill="#848484" d="M57.487,172.365c0-15.12,12.347-27.465,27.466-27.465c15.149,0,27.465,12.345,27.465,27.465h-3.413
				c0-1.555-0.153-3.108-0.458-4.573c-2.133-11.064-11.918-19.447-23.593-19.447s-21.431,8.383-23.563,19.447h-0.031
				c-0.274,1.465-0.426,3.019-0.426,4.573H57.487z"/>
			<polygon fill="#171718" points="235.297,178.247 264.012,178.247 269.347,178.247 269.347,181.665 230.45,181.665 
				230.45,178.247 			"/>
			<polygon fill="#171718" points="159.089,151.789 157.381,168.953 149.731,168.953 148.023,151.789 			"/>
			<path fill="#171718" d="M135.037,152.643c4.176,0,7.591,3.385,7.591,7.559c0,4.21-3.415,7.591-7.591,7.591
				c-4.207,0-7.59-3.381-7.59-7.591C127.447,156.027,130.831,152.643,135.037,152.643z"/>
			<path fill="#525252" d="M281.662,148.771c-8.047,4.786-13.44,13.598-13.44,23.595h-4.21h-28.715h-3.078
				c0-8.687-4.084-16.492-10.425-21.521l11.675,1.828l12.926-3.902h0.03H281.662z"/>
			<path fill="#525252" d="M148.023,148.771h42.707c-8.046,4.786-13.442,13.598-13.442,23.595h-19.906v-3.412l1.708-17.164h-11.065
				V148.771z"/>
			<path fill="#525252" d="M142.628,160.201c0-4.174-3.415-7.559-7.591-7.559c-4.207,0-7.59,3.385-7.59,7.559
				c0,4.21,3.383,7.591,7.59,7.591C139.213,167.792,142.628,164.411,142.628,160.201z M157.381,172.365h-44.963
				c0-15.12-12.315-27.465-27.465-27.465v-4.27h29.233v8.14h33.837v3.019l1.708,17.164h7.65V172.365z"/>
			<path fill="#525252" d="M84.954,140.631v4.27c-15.12,0-27.466,12.345-27.466,27.465H4.721v-28.316l7.286-3.418H84.954z"/>
			<path fill="#171718" d="M204.754,148.345c11.676,0,21.458,8.383,23.595,19.447h-3.507c-2.071-9.175-10.272-16.003-20.088-16.003
				c-9.786,0-17.986,6.828-20.06,16.003h-3.505C183.323,156.728,193.077,148.345,204.754,148.345z"/>
			<path fill="#171718" d="M61.39,167.792c2.133-11.064,11.888-19.447,23.563-19.447s21.46,8.383,23.593,19.447h-3.505
				c-2.074-9.175-10.303-16.003-20.088-16.003c-9.785,0-17.985,6.828-20.058,16.003h-0.031H61.39z"/>
			<path fill="#171718" d="M272.091,167.792c2.132-11.064,11.92-19.447,23.595-19.447h51.76c11.675,0,21.46,8.383,23.595,19.447
				h-3.507c-2.072-9.175-10.273-16.003-20.088-16.003c-9.785,0-17.986,6.828-20.059,16.003h-0.029h-11.613
				c-2.075-9.175-10.276-16.003-20.059-16.003c-9.817,0-18.016,6.828-20.088,16.003H272.091z"/>
			<path fill="#171718" d="M327.387,167.792c2.072-9.175,10.273-16.003,20.059-16.003c9.814,0,18.016,6.828,20.088,16.003
				c0.336,1.465,0.518,2.989,0.518,4.573c0,11.401-9.204,20.605-20.605,20.605c-11.369,0-20.576-9.204-20.576-20.605
				C326.869,170.781,327.051,169.257,327.387,167.792z M347.445,154.349c-9.938,0-18.017,8.079-18.017,18.017
				c0,9.937,8.079,18.046,18.017,18.046c9.937,0,18.046-8.109,18.046-18.046C365.491,162.428,357.382,154.349,347.445,154.349z"/>
			<path fill="#171718" d="M313.702,172.365c0-9.938-8.079-18.017-18.017-18.017c-9.937,0-18.046,8.079-18.046,18.017
				c0,9.937,8.109,18.046,18.046,18.046C305.623,190.411,313.702,182.302,313.702,172.365z M275.598,167.792
				c2.072-9.175,10.271-16.003,20.088-16.003c9.782,0,17.983,6.828,20.059,16.003c0.334,1.465,0.519,2.989,0.519,4.573
				c0,11.401-9.208,20.605-20.577,20.605c-11.401,0-20.605-9.204-20.605-20.605C275.08,170.781,275.259,169.257,275.598,167.792z"/>
			<path fill="#171718" d="M222.8,172.365c0-9.938-8.109-18.017-18.046-18.017c-9.938,0-18.016,8.079-18.016,18.017
				c0,9.937,8.078,18.046,18.016,18.046C214.69,190.411,222.8,182.302,222.8,172.365z M225.36,172.365
				c0,11.401-9.205,20.605-20.606,20.605c-11.372,0-20.578-9.204-20.578-20.605c0-1.584,0.183-3.108,0.518-4.573
				c2.073-9.175,10.273-16.003,20.06-16.003c9.815,0,18.017,6.828,20.088,16.003C225.176,169.257,225.36,170.781,225.36,172.365z"/>
			<path fill="#171718" d="M84.954,190.411c9.937,0,18.046-8.109,18.046-18.046c0-9.938-8.109-18.017-18.046-18.017
				c-9.938,0-18.016,8.079-18.016,18.017C66.938,182.302,75.016,190.411,84.954,190.411z M84.954,151.789
				c9.785,0,18.015,6.828,20.088,16.003c0.334,1.465,0.518,2.989,0.518,4.573c0,11.401-9.236,20.605-20.606,20.605
				s-20.576-9.204-20.576-20.605c0-1.584,0.183-3.108,0.518-4.573C66.969,158.617,75.169,151.789,84.954,151.789z"/>
			<path fill="#42383D" d="M347.445,190.411c-9.938,0-18.017-8.109-18.017-18.046c0-9.938,8.079-18.017,18.017-18.017
				c9.937,0,18.046,8.079,18.046,18.017C365.491,182.302,357.382,190.411,347.445,190.411z M347.445,181.813
				c5.212,0,9.448-4.233,9.448-9.448c0-5.213-4.236-9.419-9.448-9.419c-5.183,0-9.419,4.206-9.419,9.419
				C338.026,177.58,342.263,181.813,347.445,181.813z"/>
			<path fill="#42383D" d="M305.104,172.365c0-5.213-4.238-9.419-9.419-9.419c-5.215,0-9.451,4.206-9.451,9.419
				c0,5.215,4.236,9.448,9.451,9.448C300.866,181.813,305.104,177.58,305.104,172.365z M295.686,154.349
				c9.938,0,18.017,8.079,18.017,18.017c0,9.937-8.079,18.046-18.017,18.046c-9.937,0-18.046-8.109-18.046-18.046
				C277.64,162.428,285.749,154.349,295.686,154.349z"/>
			<path fill="#42383D" d="M214.203,172.365c0-5.213-4.239-9.419-9.449-9.419c-5.183,0-9.42,4.206-9.42,9.419
				c0,5.215,4.238,9.448,9.42,9.448C209.964,181.813,214.203,177.58,214.203,172.365z M204.754,154.349
				c9.937,0,18.046,8.079,18.046,18.017c0,9.937-8.109,18.046-18.046,18.046c-9.938,0-18.016-8.109-18.016-18.046
				C186.738,162.428,194.816,154.349,204.754,154.349z"/>
			<path fill="#42383D" d="M103,172.365c0,9.937-8.109,18.046-18.046,18.046c-9.938,0-18.016-8.109-18.016-18.046
				c0-9.938,8.078-18.017,18.016-18.017C94.891,154.349,103,162.428,103,172.365z M84.954,162.946c-5.183,0-9.42,4.206-9.42,9.419
				c0,5.215,4.238,9.448,9.42,9.448c5.212,0,9.45-4.233,9.45-9.448C94.404,167.152,90.166,162.946,84.954,162.946z"/>
			<polygon fill="#C6E7F7" points="65.902,51.804 78.765,86.616 71.723,90.152 57.946,51.804 57.946,51.774 65.902,51.774 			"/>
			<polygon fill="#C6E7F7" points="47.947,51.774 62.854,94.603 47.185,102.437 47.185,102.406 36.759,70.582 46.3,51.774 			"/>
			<polygon fill="#9BD8F2" points="84.954,51.774 84.954,83.538 78.765,86.616 65.902,51.804 65.902,51.774 			"/>
			<polygon fill="#9BD8F2" points="57.946,51.804 71.723,90.152 62.854,94.603 47.947,51.774 57.946,51.774 			"/>
			<polygon fill="#9BD8F2" points="47.185,102.406 47.185,102.437 20.604,115.727 20.604,102.437 36.759,70.582 			"/>
			<path fill="#F8951D" d="M84.954,83.538v47.645h-64.35v-15.456l26.581-13.29l15.669-7.834l8.87-4.45l7.042-3.537L84.954,83.538z
				 M80.076,102.011H69.498v3.413h10.579V102.011z"/>
			<path fill="#E37A25" d="M39.898,46.621h74.288v15.7v78.31H84.954H12.007v-38.62L39.898,46.621z M46.3,51.774l-9.541,18.808
				l-16.155,31.854v13.29v15.456h64.35V83.538V51.774H65.902h-7.956h-9.999H46.3z"/>
			<polygon fill="#EAEAEA" points="311.993,8.304 312.023,8.304 318.486,29.796 318.456,29.796 253.771,22.876 297.27,9.768 
				297.329,9.768 			"/>
			<polygon fill="#F8951D" points="312.023,8.304 311.993,8.304 297.329,9.768 311.201,5.591 			"/>
			<path fill="#D2D3D5" d="M228.956,137.737l4.513,14.936l-11.675-1.828c-4.694-3.718-10.609-5.944-17.04-5.944
				c-3.385,0-6.646,0.61-9.633,1.768l-12.621-1.982l-5.73-19.111l0.518-0.155l50.966,12.193L228.956,137.737z"/>
			<polygon fill="#F8951D" points="318.486,29.796 325.984,54.762 199.327,39.245 253.771,22.876 318.456,29.796 			"/>
			<polygon fill="#F8951D" points="313.702,128.53 304.92,131.183 263.923,143.498 228.956,137.737 221.913,114.295 			"/>
			<polygon fill="#F8951D" points="333.88,80.976 341.685,106.948 341.652,106.948 214.203,88.658 207.159,65.277 333.85,80.976 			
				"/>
			<polygon fill="#E37A25" points="207.159,65.277 214.203,88.658 163.113,80.184 161.253,73.997 168.417,67.441 168.448,67.441 			
				"/>
			<polygon fill="#E37A25" points="221.913,114.295 228.956,137.737 228.254,137.612 177.288,125.419 176.77,125.574 
				172.318,110.791 172.593,110.695 220.847,114.143 			"/>
			<polygon fill="#E37A25" points="362.139,13.578 364.943,22.876 312.023,8.304 311.201,5.591 			"/>
			<polygon fill="#E37A25" points="375.461,91.493 365.491,100.608 358.296,107.162 341.685,106.948 333.88,80.976 			"/>
			<polygon fill="#E37A25" points="371.222,43.787 375.916,59.425 325.984,54.762 318.486,29.796 			"/>
			<polygon fill="#EAEAEA" points="263.923,143.498 246.425,148.771 246.395,148.771 233.469,152.673 228.956,137.737 			"/>
			<polygon fill="#EAEAEA" points="341.685,106.948 345.311,119.02 313.702,128.53 221.913,114.295 214.203,88.658 341.652,106.948 
							"/>
			<polygon fill="#EAEAEA" points="325.984,54.762 333.88,80.976 333.85,80.976 207.159,65.277 199.327,39.245 			"/>
			<polygon fill="#D2D3D5" points="214.203,88.658 221.913,114.295 220.847,114.143 172.593,110.695 172.318,110.791 
				163.113,80.184 			"/>
			<polygon fill="#D2D3D5" points="199.327,39.245 207.159,65.277 168.448,67.441 			"/>
			<polygon fill="#D2D3D5" points="364.943,22.876 371.222,43.787 318.486,29.796 312.023,8.304 			"/>
			<polygon fill="#D2D3D5" points="358.296,107.162 345.311,119.02 341.685,106.948 			"/>
			<polygon fill="#D2D3D5" points="375.916,59.425 383.385,84.269 377.288,89.847 375.49,91.493 375.461,91.493 333.88,80.976 
				325.984,54.762 			"/>
			<path fill="#E37A25" d="M347.445,162.946c5.212,0,9.448,4.206,9.448,9.419c0,5.215-4.236,9.448-9.448,9.448
				c-5.183,0-9.419-4.233-9.419-9.448C338.026,167.152,342.263,162.946,347.445,162.946z"/>
			<path fill="#E37A25" d="M295.686,162.946c5.181,0,9.419,4.206,9.419,9.419c0,5.215-4.238,9.448-9.419,9.448
				c-5.215,0-9.451-4.233-9.451-9.448C286.234,167.152,290.471,162.946,295.686,162.946z"/>
			<path fill="#E37A25" d="M204.754,162.946c5.21,0,9.449,4.206,9.449,9.419c0,5.215-4.239,9.448-9.449,9.448
				c-5.183,0-9.42-4.233-9.42-9.448C195.333,167.152,199.571,162.946,204.754,162.946z"/>
			<path fill="#E37A25" d="M84.954,162.946c5.212,0,9.45,4.206,9.45,9.419c0,5.215-4.238,9.448-9.45,9.448
				c-5.183,0-9.42-4.233-9.42-9.448C75.533,167.152,79.771,162.946,84.954,162.946z"/>
		</g>
	</g>
	<g>
		
			<rect x="52.053" y="63.562" transform="matrix(0.4472 0.8944 -0.8944 0.4472 118.2329 7.7885)" fill="#7EBDD3" width="1.524" height="71.968"/>
	</g>
	<g>
		<path fill="#010101" d="M85,194.409c-12.198,0-22.122-9.926-22.122-22.122c0-12.199,9.924-22.124,22.122-22.124
			c12.199,0,22.124,9.925,22.124,22.124C107.124,184.483,97.199,194.409,85,194.409z M85,153.212
			c-10.518,0-19.073,8.556-19.073,19.075c0,10.515,8.556,19.073,19.073,19.073c10.519,0,19.076-8.559,19.076-19.073
			C104.076,161.768,95.519,153.212,85,153.212z"/>
	</g>
	<g>
		<path fill="#5A5558" d="M85,191.834c-10.778,0-19.546-8.771-19.546-19.547c0-10.782,8.769-19.552,19.546-19.552
			c10.779,0,19.549,8.77,19.549,19.552C104.549,183.063,95.779,191.834,85,191.834z M85,155.783
			c-9.098,0-16.498,7.404-16.498,16.504c0,9.098,7.4,16.498,16.498,16.498c9.099,0,16.501-7.4,16.501-16.498
			C101.501,163.188,94.099,155.783,85,155.783z"/>
	</g>
	<g>
		<path fill="#F8951D" d="M85,183.254c-6.046,0-10.964-4.92-10.964-10.967c0-6.049,4.917-10.967,10.964-10.967
			c6.047,0,10.967,4.918,10.967,10.967C95.967,178.334,91.047,183.254,85,183.254z M85,164.369c-4.364,0-7.916,3.551-7.916,7.918
			c0,4.364,3.551,7.919,7.916,7.919c4.365,0,7.918-3.555,7.918-7.919C92.918,167.92,89.365,164.369,85,164.369z"/>
	</g>
	<g>
		<path fill="#010101" d="M204.802,194.409c-12.198,0-22.121-9.926-22.121-22.122c0-12.199,9.923-22.124,22.121-22.124
			c12.199,0,22.124,9.925,22.124,22.124C226.926,184.483,217.001,194.409,204.802,194.409z M204.802,153.212
			c-10.518,0-19.073,8.556-19.073,19.075c0,10.515,8.555,19.073,19.073,19.073c10.521,0,19.076-8.559,19.076-19.073
			C223.878,161.768,215.322,153.212,204.802,153.212z"/>
	</g>
	<g>
		<path fill="#5A5558" d="M204.802,191.834c-10.778,0-19.546-8.771-19.546-19.547c0-10.782,8.769-19.552,19.546-19.552
			c10.782,0,19.552,8.77,19.552,19.552C224.354,183.063,215.584,191.834,204.802,191.834z M204.802,155.783
			c-9.098,0-16.498,7.404-16.498,16.504c0,9.098,7.4,16.498,16.498,16.498c9.101,0,16.504-7.4,16.504-16.498
			C221.306,163.188,213.902,155.783,204.802,155.783z"/>
	</g>
	<g>
		<path fill="#F8951D" d="M204.802,183.254c-6.046,0-10.964-4.92-10.964-10.967c0-6.049,4.918-10.967,10.964-10.967
			c6.049,0,10.967,4.918,10.967,10.967C215.769,178.334,210.851,183.254,204.802,183.254z M204.802,164.369
			c-4.364,0-7.916,3.551-7.916,7.918c0,4.364,3.551,7.919,7.916,7.919s7.918-3.555,7.918-7.919
			C212.72,167.92,209.166,164.369,204.802,164.369z"/>
	</g>
	<g>
		<path fill="#010101" d="M295.71,193.646c-11.776,0-21.362-9.582-21.362-21.359c0-11.779,9.586-21.361,21.362-21.361
			c11.782,0,21.362,9.582,21.362,21.361C317.072,184.064,307.492,193.646,295.71,193.646z M295.71,152.449
			c-10.938,0-19.838,8.898-19.838,19.838c0,10.938,8.9,19.835,19.838,19.835c10.939,0,19.838-8.897,19.838-19.835
			C315.548,161.348,306.649,152.449,295.71,152.449z"/>
	</g>
	<g>
		<path fill="#5A5558" d="M295.71,191.834c-10.776,0-19.546-8.771-19.546-19.547c0-10.782,8.77-19.552,19.546-19.552
			c10.779,0,19.546,8.77,19.546,19.552C315.256,183.063,306.489,191.834,295.71,191.834z M295.71,155.783
			c-9.098,0-16.498,7.404-16.498,16.504c0,9.098,7.4,16.498,16.498,16.498s16.498-7.4,16.498-16.498
			C312.208,163.188,304.808,155.783,295.71,155.783z"/>
	</g>
	<g>
		<path fill="#F8951D" d="M295.71,183.254c-6.046,0-10.967-4.92-10.967-10.967c0-6.049,4.921-10.967,10.967-10.967
			c6.049,0,10.967,4.918,10.967,10.967C306.677,178.334,301.759,183.254,295.71,183.254z M295.71,164.369
			c-4.364,0-7.919,3.551-7.919,7.918c0,4.364,3.555,7.919,7.919,7.919c4.367,0,7.918-3.555,7.918-7.919
			C303.628,167.92,300.077,164.369,295.71,164.369z"/>
	</g>
	<g>
		<path fill="#010101" d="M347.493,194.409c-12.196,0-22.119-9.926-22.119-22.122c0-12.199,9.923-22.124,22.119-22.124
			c12.199,0,22.124,9.925,22.124,22.124C369.617,184.483,359.692,194.409,347.493,194.409z M347.493,153.212
			c-10.515,0-19.07,8.556-19.07,19.075c0,10.515,8.556,19.073,19.07,19.073c10.517,0,19.075-8.559,19.075-19.073
			C366.568,161.768,358.01,153.212,347.493,153.212z"/>
	</g>
	<g>
		<path fill="#5A5558" d="M347.493,191.834c-10.779,0-19.547-8.771-19.547-19.547c0-10.782,8.768-19.552,19.547-19.552
			c10.782,0,19.552,8.77,19.552,19.552C367.045,183.063,358.275,191.834,347.493,191.834z M347.493,155.783
			c-9.098,0-16.498,7.404-16.498,16.504c0,9.098,7.4,16.498,16.498,16.498c9.1,0,16.504-7.4,16.504-16.498
			C363.997,163.188,356.593,155.783,347.493,155.783z"/>
	</g>
	<g>
		<path fill="#F8951D" d="M347.493,183.254c-6.044,0-10.961-4.92-10.961-10.967c0-6.049,4.917-10.967,10.961-10.967
			c6.046,0,10.967,4.918,10.967,10.967C358.46,178.334,353.539,183.254,347.493,183.254z M347.493,164.369
			c-4.364,0-7.913,3.551-7.913,7.918c0,4.364,3.549,7.919,7.913,7.919c4.367,0,7.918-3.555,7.918-7.919
			C355.411,167.92,351.86,164.369,347.493,164.369z"/>
	</g>
	<g>
		<path fill="#993621" d="M85.762,131.85H19.869l0.082-29.858l25.918-51.055h39.893V131.85z M21.393,130.325h62.845V52.46H46.803
			l-25.411,50.058V130.325z"/>
	</g>
	<g>
		<path fill="#9F9EA0" d="M141.01,87.454c-7.034,0-12.756-5.723-12.756-12.759c0-7.038,5.722-12.762,12.756-12.762
			c7.036,0,12.759,5.725,12.759,12.762C153.769,81.73,148.046,87.454,141.01,87.454z M141.01,64.981
			c-5.352,0-9.708,4.358-9.708,9.714c0,5.354,4.355,9.71,9.708,9.71c5.354,0,9.711-4.356,9.711-9.71
			C150.721,69.339,146.364,64.981,141.01,64.981z"/>
	</g>
	<g>
		<rect x="234.582" y="172.287" fill="#010101" width="1.524" height="5.865"/>
	</g>
	<g>
		<rect x="263.304" y="172.287" fill="#010101" width="1.523" height="5.865"/>
	</g>
</g>
</svg>
